<svg width="151" height="56" fill="none" xmlns="http://www.w3.org/2000/svg"><path fill="#000" d="M0 0h151v56H0z"/><path d="M50.7 15v7H53c2.1 0 3.4-1.3 3.4-3.5S55 14.9 53 14.9h-2.3zm.9.7H53c1.6 0 2.5 1 2.5 2.8 0 1.7-.9 2.7-2.5 2.7h-1.4v-5.4zm6.3 6.3h.8v-5H58v5zm.4-6c.3 0 .5-.2.5-.5a.5.5 0 1 0-1 0c0 .3.2.5.5.5zm2 2.3c0 .8.5 1.2 1.4 1.4l.8.2c.6.2.8.4.8.7 0 .5-.4.8-1.1.8-.7 0-1-.3-1.2-.9h-.8c0 1 .8 1.6 2 1.6 1.1 0 2-.6 2-1.5 0-.8-.4-1.2-1.5-1.4L62 19c-.5-.1-.8-.4-.8-.7 0-.5.4-.8 1-.8.7 0 1 .4 1.1.9h.8c0-1-.7-1.6-1.8-1.6s-2 .7-2 1.5zm7.7-1.5c-.7 0-1.3.4-1.6 1v-.9h-.9v6.8h.9v-2.5c.3.5.9.9 1.6.9 1.3 0 2.2-1 2.2-2.6s-.9-2.7-2.2-2.7zm-.2 4.5c-.8 0-1.4-.7-1.4-1.8s.6-2 1.4-2c1 0 1.5.8 1.5 2s-.6 1.8-1.5 1.8zm5.8.8c1.4 0 2.4-1 2.4-2.6 0-1.7-1-2.7-2.4-2.7s-2.3 1-2.3 2.7c0 1.6 1 2.6 2.3 2.6zm0-.8c-.9 0-1.4-.6-1.4-1.8 0-1.2.6-2 1.5-2 .8 0 1.4.8 1.4 2s-.6 1.8-1.5 1.8zm3.7.7h.9v-3c0-.9.5-1.4 1.3-1.4s1.2.4 1.2 1.3V22h.8v-3.3c0-1.1-.6-1.9-1.7-1.9-.8 0-1.4.4-1.6 1v-.9h-.9V22zm5.9 0h.8v-5h-.8v5zm.7-5.8 1.2-1.5h-1l-.8 1.5h.6zm6 .7h-1l-1.4 4.2-1.4-4.2h-.9l1.9 5.1h.9l1.8-5zm3 .7c.8 0 1.3.6 1.3 1.4h-2.7c0-.8.6-1.4 1.4-1.4zm1.3 3c-.1.4-.6.7-1.2.7-1 0-1.5-.6-1.5-1.6H95v-.3c0-1.6-.8-2.6-2.2-2.6-1.4 0-2.3 1.1-2.3 2.7s.9 2.6 2.3 2.6c1.1 0 2-.7 2.2-1.6h-.9zm2.3 1.4h.9v-7h-.9v7zm5 0h1v-3c0-.9.4-1.4 1.2-1.4.8 0 1.2.4 1.2 1.3V22h.9v-3.3c0-1.1-.7-1.9-1.8-1.9-.8 0-1.3.4-1.6 1v-.9h-.8V22zm7.5-.6c-.6 0-1-.4-1-.8 0-.5.4-.8 1-.9h1.4v.4c0 .7-.6 1.3-1.4 1.3zm-.2.7c.7 0 1.4-.4 1.7-1v.9h.8v-3.5c0-1-.8-1.7-2-1.7s-2 .7-2 1.6h.9c0-.5.5-.8 1.1-.8.7 0 1.1.3 1.1 1v.4H109c-1.2.1-1.9.7-1.9 1.6 0 .9.7 1.5 1.7 1.5z" fill="#F5F5F5"/><path fill-rule="evenodd" clip-rule="evenodd" d="M35.6 14.2a5.5 5.5 0 0 1-1.3 4 5 5 0 0 1-3.8 1.8 5.2 5.2 0 0 1 1.3-3.9 6 6 0 0 1 3.8-1.9zm4.7 8.6c-.1 0-2.8 1.6-2.8 4.7a5.5 5.5 0 0 0 3.5 5c0 .2-.5 1.9-1.8 3.6-1 1.5-2.2 3-4 3-.8.1-1.3-.1-2-.4a5.4 5.4 0 0 0-4.6 0c-.5.3-1 .5-1.8.5-1.7 0-3-1.6-4.1-3.2-2.2-3-3.9-8.7-1.6-12.6a6.3 6.3 0 0 1 5.3-3 7.1 7.1 0 0 1 2.7.6 5 5 0 0 0 1.6.4c.4 0 .9-.2 1.5-.4 1-.4 2.2-.9 3.4-.7a6 6 0 0 1 4.7 2.4zm54.3 15.4c.8-.7 1.2-1.6 1.2-2.7 0-.9-.3-1.6-.8-2.2a6.6 6.6 0 0 0-2.6-1.6 7 7 0 0 1-2-1 1.6 1.6 0 0 1 0-2.4c.4-.4 1-.6 1.8-.6 1 0 1.8.2 2.5.6l.6-1.7a6.6 6.6 0 0 0-3-.6 5 5 0 0 0-3.3 1 3.3 3.3 0 0 0-1.3 2.6c0 1.7 1.2 3 3.5 3.8.9.3 1.5.6 1.9 1 .4.3.5.8.5 1.3 0 .6-.2 1-.6 1.4a3 3 0 0 1-2 .6 6 6 0 0 1-3-.9l-.5 1.8c.9.5 2 .8 3.5.8s2.7-.4 3.6-1.2zm-35.6 1h2.3l-4.3-13h-2.7l-4.3 13h2.2l1.2-3.8h4.3l1.3 3.8zm-2.8-8.8 1.2 3.4h-3.6l1-3.4.7-2.5.7 2.5zM71 38.2a5.2 5.2 0 0 0 1.3-3.8 5 5 0 0 0-1.1-3.5 3.6 3.6 0 0 0-2.9-1.3c-1.4 0-2.5.6-3.2 1.7l-.2-1.5H63l.1 3V43h2.2v-5c.6 1 1.5 1.4 2.7 1.4a4 4 0 0 0 3-1.2zm-1.5-6c.4.6.6 1.4.6 2.3a3.9 3.9 0 0 1-.6 2.4c-.5.6-1.1.9-2 .9-.6 0-1.2-.3-1.6-.7a2.5 2.5 0 0 1-.6-1.8v-2.2a2.4 2.4 0 0 1 2.3-1.8c.8 0 1.4.3 1.9.9zm13.9 2.2c0 1.6-.5 2.8-1.3 3.8a4 4 0 0 1-3 1.2c-1.3 0-2.2-.4-2.7-1.3V43h-2.2V29.9H76l.1 1.4a3.6 3.6 0 0 1 3.3-1.7c1.1 0 2 .5 2.9 1.3a5 5 0 0 1 1 3.5zm-2.2 0c0-.8-.2-1.6-.6-2.2a2.2 2.2 0 0 0-1.9-1 2.4 2.4 0 0 0-2.3 2v2.1c0 .7.1 1.3.6 1.8.4.4 1 .7 1.7.7.8 0 1.4-.3 1.8-1 .5-.5.7-1.3.7-2.3zm21.6-3h-2.3v4.5c0 1.2.4 1.8 1.2 1.8l1-.1V39c-.4.2-1 .3-1.6.3a2.6 2.6 0 0 1-2-.8c-.5-.5-.7-1.3-.7-2.5v-4.7H97v-1.6h1.4v-1.7l2-.6v2.3h2.4v1.6zm9.4 6.6a5 5 0 0 0 1.3-3.6c0-1.4-.4-2.5-1.3-3.4-.8-1-2-1.4-3.4-1.4s-2.6.5-3.5 1.4a5 5 0 0 0-1.3 3.6 4.9 4.9 0 0 0 1.3 3.4 4.4 4.4 0 0 0 3.4 1.4c1.4 0 2.6-.5 3.5-1.4zm-1.5-5.7c.4.6.5 1.3.5 2.2 0 .8-.2 1.6-.5 2.2a2.1 2.1 0 0 1-2 1.2c-.8 0-1.4-.4-1.9-1.2a4.1 4.1 0 0 1-.6-2.2c0-.9.2-1.6.6-2.2a2.2 2.2 0 0 1 2-1.1c.8 0 1.4.3 1.9 1zm9.7-.7a3.8 3.8 0 0 0-.7 0 2 2 0 0 0-1.7.8 3 3 0 0 0-.5 1.9v4.9h-2.2v-9.4h1.8l.1 1.8c.3-.6.7-1.1 1.1-1.5a2.7 2.7 0 0 1 2.1-.4v2zM130 35v-1a5 5 0 0 0-.8-2.9c-.7-1-1.7-1.5-3.1-1.5-1.4 0-2.5.5-3.4 1.5a5.3 5.3 0 0 0-1.2 3.5c0 1.5.5 2.6 1.3 3.5a4.8 4.8 0 0 0 3.5 1.3c1.3 0 2.4-.2 3.3-.6l-.4-1.5c-.8.3-1.6.5-2.6.5-.8 0-1.5-.2-2-.7-.7-.5-1-1.2-1-2.1h6.4zm-2.4-3c.3.4.5.9.4 1.5h-4.4c0-.6.3-1.1.6-1.6a2 2 0 0 1 1.7-.8c.8 0 1.4.2 1.7.8z" fill="#F5F5F5"/></svg>