<svg width="151" height="56" fill="none" xmlns="http://www.w3.org/2000/svg"><path fill="#000" d="M0 0h151v56H0z"/><path d="M75.7 29.4a4.3 4.3 0 0 0-4.4 4.3 4.3 4.3 0 0 0 4.4 4.3C78 38 80 36 80 33.7a4.3 4.3 0 0 0-4.3-4.3zm0 6.9c-1.4 0-2.5-1-2.5-2.6s1.1-2.6 2.5-2.6 2.4 1 2.4 2.6-1.1 2.6-2.4 2.6zm-9.5-7a4.3 4.3 0 0 0-4.4 4.4 4.3 4.3 0 0 0 4.4 4.3c2.4 0 4.3-1.9 4.3-4.3a4.3 4.3 0 0 0-4.3-4.3zm0 7c-1.4 0-2.5-1-2.5-2.6s1.1-2.6 2.5-2.6c1.3 0 2.4 1 2.4 2.6s-1.1 2.6-2.4 2.6zm-11.3-5.6v1.8h4.4a3.8 3.8 0 0 1-1 2.3 4.5 4.5 0 0 1-3.4 1.3 4.8 4.8 0 0 1-4.8-4.8 4.8 4.8 0 0 1 4.8-4.9c1.4 0 2.5.6 3.3 1.3l1.3-1.2a6.4 6.4 0 0 0-4.6-1.9 6.8 6.8 0 0 0-6.8 6.7 6.8 6.8 0 0 0 6.8 6.7c2 0 3.5-.7 4.7-1.9a6 6 0 0 0 1.6-4.3l-.1-1h-6.2v-.1zm46.1 1.4c-.4-1-1.5-2.7-3.7-2.7s-4 1.7-4 4.3c0 2.4 1.7 4.2 4.2 4.2a4.3 4.3 0 0 0 3.6-1.8l-1.5-1a2.5 2.5 0 0 1-2 1.2 2.2 2.2 0 0 1-2.2-1.3l5.8-2.4-.2-.5zm-5.9 1.4a2.4 2.4 0 0 1 2.3-2.5c.7 0 1.3.4 1.6 1l-4 1.5zm-4.7 4.2h1.9V25.1h-2v12.6zm-3.1-7.4h-.1a3 3 0 0 0-2.3-1 4.3 4.3 0 0 0-4.1 4.4c0 2.4 2 4.3 4.1 4.3a3 3 0 0 0 2.3-1v.6c0 1.6-.8 2.5-2.2 2.5a2.4 2.4 0 0 1-2.2-1.5l-1.7.7a4.1 4.1 0 0 0 3.9 2.5c2.2 0 4-1.3 4-4.4v-7.8h-1.7v.7zm-2.2 6c-1.3 0-2.4-1.1-2.4-2.6s1-2.6 2.4-2.6c1.3 0 2.3 1 2.3 2.6 0 1.5-1 2.6-2.3 2.6zM109.9 25h-4.5v12.6h1.9v-4.8h2.6c2.1 0 4.2-1.5 4.2-3.9s-2-4-4.2-4zm0 6h-2.7v-4.3h2.7a2.2 2.2 0 0 1 2.3 2.2c0 1-.8 2.2-2.2 2.2zm11.8-1.7c-1.4 0-2.8.6-3.4 1.9l1.7.7c.4-.7 1-1 1.7-1 1 0 2 .6 2 1.7v.1a4.3 4.3 0 0 0-2-.5c-1.8 0-3.6 1-3.6 2.9 0 1.6 1.5 2.7 3.1 2.7 1.3 0 2-.5 2.5-1.2v1h1.9v-4.9c0-2.2-1.7-3.4-3.9-3.4zm-.2 6.9c-.7 0-1.5-.3-1.5-1.1 0-1 1-1.4 2-1.4.8 0 1.2.2 1.7.5a2.3 2.3 0 0 1-2.2 2zm10.7-6.7-2.1 5.5h-.1l-2.3-5.5h-2l3.4 7.7-2 4.2h2l5.2-11.9h-2zm-17 8.1h1.8V25.1h-1.9v12.6z" fill="#F5F5F5"/><path d="M17 15a2 2 0 0 0-.5 1.5v22.3c0 .6.1 1 .4 1.4l12.7-12.4v-.3L17 15z" fill="url(#a)"/><path d="m33.8 32-4.2-4.2v-.3l4.2-4.2h.1l5 2.9c1.4.8 1.4 2 0 2.9l-5 2.8h-.1z" fill="url(#b)"/><path d="m33.9 31.9-4.3-4.3-12.7 12.6c.5.5 1.3.5 2.1 0L34 32z" fill="url(#c)"/><path d="M33.9 23.4 19 15c-.8-.5-1.6-.5-2 0l12.6 12.6 4.3-4.2z" fill="url(#d)"/><path opacity=".2" d="M33.8 31.8 19 40c-.8.5-1.5.4-2 0v.1c.5.5 1.2.5 2 0L34 32l-.2-.1z" fill="#000"/><path opacity=".1" d="M17 40a2 2 0 0 1-.5-1.4v.2c0 .6.1 1 .4 1.4V40zm21.9-11-5.1 2.8 5-2.7c.8-.4 1.1-1 1.1-1.5 0 .5-.4 1-1 1.3z" fill="#000"/><path opacity=".3" d="M19 15.1 39 26.3c.6.4 1 .8 1 1.3 0-.5-.3-1-1-1.4L19 15c-1.4-.8-2.6-.1-2.6 1.5v.1c0-1.6 1.2-2.3 2.6-1.5z" fill="#fff"/><path d="M48.4 20.6v-6.1h1.8c1 0 1.7.3 2.3.8.6.6.8 1.3.8 2.2a3 3 0 0 1-.8 2.2 3.1 3.1 0 0 1-2.3.9h-1.8zm.8-.8h1c.7 0 1.3-.2 1.7-.6.4-.4.6-1 .6-1.7s-.2-1.2-.6-1.7a2.3 2.3 0 0 0-1.7-.6h-1v4.6zm5.2.8v-6.1h.8v6h-.8zm4 0c-.5 0-1 0-1.4-.4a2 2 0 0 1-.8-1.2l.7-.2c0 .3.3.6.5.8.3.2.6.3 1 .3.3 0 .6 0 .8-.2a.8.8 0 0 0 .4-.8 1 1 0 0 0-.4-.7 3.9 3.9 0 0 0-1.1-.5 3.1 3.1 0 0 1-1.3-.7c-.2-.3-.4-.6-.4-1 0-.5.2-.8.5-1.2a2 2 0 0 1 1.4-.4 2 2 0 0 1 1.2.3c.4.3.6.6.7.9l-.7.3a1 1 0 0 0-.4-.6l-.8-.2c-.3 0-.6 0-.8.2a.8.8 0 0 0-.3.7c0 .2.1.4.3.5l.9.5.7.2.6.4c.2.2.4.3.5.6a1.9 1.9 0 0 1 0 1.5c-.1.3-.3.4-.5.6a2.3 2.3 0 0 1-1.4.4zm3.9 0h-.8v-6.1h2c.6 0 1 .2 1.4.5.4.4.6.8.6 1.3s-.2 1-.6 1.3a2 2 0 0 1-1.3.5h-1.3v2.4zm0-3.3h1.3c.3 0 .6 0 .8-.3.2-.2.3-.4.3-.7a1 1 0 0 0-.3-.7 1 1 0 0 0-.8-.4h-1.3v2.2zm9.2 2.5a3 3 0 0 1-2.3.9 3 3 0 0 1-3-3.2c0-.8.2-1.6.8-2.2a3 3 0 0 1 2.2-1 3.1 3.1 0 0 1 3.2 3.2 3 3 0 0 1-1 2.3zm-4-.5c.5.4 1 .6 1.7.6s1.2-.2 1.7-.6c.4-.5.7-1 .7-1.8a2.3 2.3 0 0 0-2.4-2.4c-.6 0-1.2.2-1.6.7a2.4 2.4 0 0 0-.7 1.7c0 .7.2 1.3.7 1.8zm6 1.3v-6.1h1l3 4.7v-4.7h.7v6h-.8l-3.1-4.9v4.9h-.8zm6.1 0v-6.1h.8v6h-.8zm.7-6.6h-.7l.5-1h.8l-.6 1zm3 6.6L81 14.5h.9l1.7 5 1.8-5h.8l-2.2 6h-.8zm7.5-5.4H88v2h2.5v.7H88v2h2.8v.7h-3.6v-6.1h3.6v.8zm1.2 5.4v-6.1h.8v5.3h2.6v.8H92zm6.5 0v-6.1h1l2.9 4.7v-4.7h.8v6h-.8l-3.1-4.9v4.9h-.8zm11-.8a3 3 0 0 1-2.2.9 3 3 0 0 1-3.1-3.2c0-.8.3-1.6.9-2.2a3 3 0 0 1 2.2-1 3.1 3.1 0 0 1 3.2 3.2 3.1 3.1 0 0 1-1 2.3zm-3.8-.5c.4.4 1 .6 1.6.6.7 0 1.2-.2 1.7-.6.4-.5.7-1 .7-1.8a2.3 2.3 0 0 0-2.4-2.4c-.6 0-1.2.2-1.6.7a2.4 2.4 0 0 0-.7 1.7c0 .7.2 1.3.7 1.8z" fill="#F5F5F5"/><defs><linearGradient id="a" x1="28.5" y1="16.2" x2="11.6" y2="33.3" gradientUnits="userSpaceOnUse"><stop stop-color="#00A0FF"/><stop offset="0" stop-color="#00A1FF"/><stop offset=".3" stop-color="#00BEFF"/><stop offset=".5" stop-color="#00D2FF"/><stop offset=".8" stop-color="#00DFFF"/><stop offset="1" stop-color="#00E3FF"/></linearGradient><linearGradient id="b" x1="40.7" y1="27.6" x2="16.1" y2="27.6" gradientUnits="userSpaceOnUse"><stop stop-color="#FFE000"/><stop offset=".4" stop-color="#FFBD00"/><stop offset=".8" stop-color="orange"/><stop offset="1" stop-color="#FF9C00"/></linearGradient><linearGradient id="c" x1="31.6" y1="29.9" x2="8.6" y2="53.1" gradientUnits="userSpaceOnUse"><stop stop-color="#FF3A44"/><stop offset="1" stop-color="#C31162"/></linearGradient><linearGradient id="d" x1="13.7" y1="7.6" x2="24" y2="18" gradientUnits="userSpaceOnUse"><stop stop-color="#32A071"/><stop offset=".1" stop-color="#2DA771"/><stop offset=".5" stop-color="#15CF74"/><stop offset=".8" stop-color="#06E775"/><stop offset="1" stop-color="#00F076"/></linearGradient></defs></svg>